<mxfile host="drawio-plugin" modified="2023-04-03T07:36:41.696Z" agent="5.0 (Windows NT 6.2; Win64; x64) AppleWebKit/537.36 (KHTML, like Gecko) Chrome/89.0.4389.114 Safari/537.36" etag="ONTfPAVtdqDHZM4PExq-" version="20.5.3" type="embed"><diagram id="6fKqddsvoKilhVJ8xBK_" name="第 1 页"><mxGraphModel dx="979" dy="482" grid="1" gridSize="10" guides="1" tooltips="1" connect="1" arrows="1" fold="1" page="1" pageScale="1" pageWidth="827" pageHeight="1169" math="0" shadow="0"><root><mxCell id="0"/><mxCell id="1" parent="0"/><mxCell id="oyyK_Lf0NXoEQ-x6683D-1" value="" style="ellipse;whiteSpace=wrap;html=1;aspect=fixed;" parent="1" vertex="1"><mxGeometry x="740" y="480" width="45" height="45" as="geometry"/></mxCell><mxCell id="oyyK_Lf0NXoEQ-x6683D-3" value="" style="ellipse;whiteSpace=wrap;html=1;aspect=fixed;" parent="1" vertex="1"><mxGeometry x="460" y="195" width="45" height="45" as="geometry"/></mxCell><mxCell id="oyyK_Lf0NXoEQ-x6683D-4" value="&lt;font style=&quot;font-size: 24px&quot;&gt;盒&lt;/font&gt;" style="text;html=1;strokeColor=none;fillColor=none;align=center;verticalAlign=middle;whiteSpace=wrap;rounded=0;" parent="1" vertex="1"><mxGeometry x="735" y="565" width="50" height="20" as="geometry"/></mxCell><mxCell id="oyyK_Lf0NXoEQ-x6683D-5" value="&lt;font style=&quot;font-size: 24px&quot;&gt;小包&lt;/font&gt;" style="text;html=1;strokeColor=none;fillColor=none;align=center;verticalAlign=middle;whiteSpace=wrap;rounded=0;" parent="1" vertex="1"><mxGeometry x="445" y="140" width="75" height="20" as="geometry"/></mxCell><mxCell id="oyyK_Lf0NXoEQ-x6683D-7" value="&lt;font style=&quot;font-size: 24px&quot;&gt;10000&lt;/font&gt;" style="text;html=1;strokeColor=none;fillColor=none;align=center;verticalAlign=middle;whiteSpace=wrap;rounded=0;" parent="1" vertex="1"><mxGeometry x="250" y="175" width="140" height="20" as="geometry"/></mxCell><mxCell id="oyyK_Lf0NXoEQ-x6683D-8" value="&lt;font style=&quot;font-size: 24px&quot;&gt;0.0001&lt;/font&gt;" style="text;html=1;strokeColor=none;fillColor=none;align=center;verticalAlign=middle;whiteSpace=wrap;rounded=0;" parent="1" vertex="1"><mxGeometry x="250" y="240" width="140" height="20" as="geometry"/></mxCell><mxCell id="oyyK_Lf0NXoEQ-x6683D-9" value="" style="ellipse;whiteSpace=wrap;html=1;aspect=fixed;" parent="1" vertex="1"><mxGeometry x="460" y="480" width="45" height="45" as="geometry"/></mxCell><mxCell id="oyyK_Lf0NXoEQ-x6683D-15" value="" style="endArrow=classic;startArrow=classic;html=1;entryX=0.5;entryY=1;entryDx=0;entryDy=0;exitX=0.5;exitY=0;exitDx=0;exitDy=0;" parent="1" source="oyyK_Lf0NXoEQ-x6683D-9" target="oyyK_Lf0NXoEQ-x6683D-3" edge="1"><mxGeometry width="50" height="50" relative="1" as="geometry"><mxPoint x="390" y="440" as="sourcePoint"/><mxPoint x="440" y="390" as="targetPoint"/></mxGeometry></mxCell><mxCell id="oyyK_Lf0NXoEQ-x6683D-16" value="&lt;font style=&quot;font-size: 24px&quot;&gt;0.01&lt;/font&gt;" style="text;html=1;strokeColor=none;fillColor=none;align=center;verticalAlign=middle;whiteSpace=wrap;rounded=0;" parent="1" vertex="1"><mxGeometry x="360" y="350" width="140" height="20" as="geometry"/></mxCell><mxCell id="oyyK_Lf0NXoEQ-x6683D-17" value="&lt;font style=&quot;font-size: 24px&quot;&gt;100&lt;/font&gt;" style="text;html=1;strokeColor=none;fillColor=none;align=center;verticalAlign=middle;whiteSpace=wrap;rounded=0;" parent="1" vertex="1"><mxGeometry x="470" y="350" width="140" height="20" as="geometry"/></mxCell><mxCell id="oyyK_Lf0NXoEQ-x6683D-18" value="" style="ellipse;whiteSpace=wrap;html=1;aspect=fixed;" parent="1" vertex="1"><mxGeometry x="137.5" y="480" width="45" height="45" as="geometry"/></mxCell><mxCell id="oyyK_Lf0NXoEQ-x6683D-19" value="&lt;font style=&quot;font-size: 24px&quot;&gt;包&lt;/font&gt;" style="text;html=1;strokeColor=none;fillColor=none;align=center;verticalAlign=middle;whiteSpace=wrap;rounded=0;" parent="1" vertex="1"><mxGeometry x="445" y="565" width="75" height="20" as="geometry"/></mxCell><mxCell id="oyyK_Lf0NXoEQ-x6683D-20" value="&lt;font style=&quot;font-size: 24px&quot;&gt;箱&lt;/font&gt;" style="text;html=1;strokeColor=none;fillColor=none;align=center;verticalAlign=middle;whiteSpace=wrap;rounded=0;" parent="1" vertex="1"><mxGeometry x="122.5" y="565" width="75" height="20" as="geometry"/></mxCell><mxCell id="oyyK_Lf0NXoEQ-x6683D-21" value="" style="endArrow=classic;startArrow=classic;html=1;exitX=1;exitY=0.5;exitDx=0;exitDy=0;entryX=0;entryY=0.5;entryDx=0;entryDy=0;" parent="1" source="oyyK_Lf0NXoEQ-x6683D-18" target="oyyK_Lf0NXoEQ-x6683D-9" edge="1"><mxGeometry width="50" height="50" relative="1" as="geometry"><mxPoint x="390" y="520" as="sourcePoint"/><mxPoint x="440" y="470" as="targetPoint"/></mxGeometry></mxCell><mxCell id="oyyK_Lf0NXoEQ-x6683D-22" value="&lt;font style=&quot;font-size: 24px&quot;&gt;10000&lt;/font&gt;" style="text;html=1;strokeColor=none;fillColor=none;align=center;verticalAlign=middle;whiteSpace=wrap;rounded=0;" parent="1" vertex="1"><mxGeometry x="250" y="450" width="140" height="20" as="geometry"/></mxCell><mxCell id="oyyK_Lf0NXoEQ-x6683D-23" value="&lt;font style=&quot;font-size: 24px&quot;&gt;0.0001&lt;/font&gt;" style="text;html=1;strokeColor=none;fillColor=none;align=center;verticalAlign=middle;whiteSpace=wrap;rounded=0;" parent="1" vertex="1"><mxGeometry x="250" y="545" width="140" height="20" as="geometry"/></mxCell><mxCell id="4" value="" style="endArrow=classic;startArrow=classic;html=1;rounded=0;exitX=1;exitY=0.5;exitDx=0;exitDy=0;" edge="1" parent="1" source="oyyK_Lf0NXoEQ-x6683D-9" target="oyyK_Lf0NXoEQ-x6683D-1"><mxGeometry width="50" height="50" relative="1" as="geometry"><mxPoint x="390" y="480" as="sourcePoint"/><mxPoint x="440" y="430" as="targetPoint"/></mxGeometry></mxCell><mxCell id="5" value="&lt;font style=&quot;font-size: 24px&quot;&gt;0.01&lt;/font&gt;" style="text;html=1;strokeColor=none;fillColor=none;align=center;verticalAlign=middle;whiteSpace=wrap;rounded=0;" vertex="1" parent="1"><mxGeometry x="550" y="450" width="140" height="20" as="geometry"/></mxCell><mxCell id="8" value="&lt;font style=&quot;font-size: 24px&quot;&gt;100&lt;/font&gt;" style="text;html=1;strokeColor=none;fillColor=none;align=center;verticalAlign=middle;whiteSpace=wrap;rounded=0;" vertex="1" parent="1"><mxGeometry x="550" y="545" width="140" height="20" as="geometry"/></mxCell></root></mxGraphModel></diagram></mxfile>